<svg xmlns="http://www.w3.org/2000/svg" width="60" height="60" viewBox="0 0 60 60">
  <path d="M683,5745a7.008,7.008,0,0,0-7,7v17a2.986,2.986,0,0,0,2,2.81V5786a3,3,0,0,0,6,0v-40A1,1,0,0,0,683,5745Zm-1,41a1,1,0,0,1-2,0v-14h2v14Zm0-16h-3a1,1,0,0,1-1-1v-17a5,5,0,0,1,4-4.9V5770Zm43.944-2.55-2.38-3.57a1,1,0,0,0-1.405-.27l-2.714,1.9-0.523-.57a17.8,17.8,0,0,0-20.66-5.21l-0.308-1.08a3.652,3.652,0,1,0-5.014,4.33c-6.8,5.62-7.307,16.15-3.406,23.47l-3.079,2.16a1,1,0,0,0-.258,1.37l2.379,3.57a0.984,0.984,0,0,0,.647.43,1.175,1.175,0,0,0,.186.02,0.986,0.986,0,0,0,.573-0.18l7.982-5.59c0.08,0.12.145,0.25,0.231,0.36a15.557,15.557,0,0,0,7.471,5.35,0.954,0.954,0,0,0,.332.06,1,1,0,0,0,.447-0.11l1.736-.86a23.859,23.859,0,0,0,2.4.13c2.384,0,5.21-.43,7.095-2.16,4.254-3.91,2.37-10.97,2.287-11.27A1,1,0,0,0,719,5779h-0.006a18.6,18.6,0,0,0-6.412,1.17,14.635,14.635,0,0,0-3.1,1.97c-0.186-.52-0.389-1.04-0.564-1.49-0.009-.02-0.02-0.05-0.029-0.07l16.8-11.76A1,1,0,0,0,725.945,5767.45Zm-16.1,17.1a11.776,11.776,0,0,1,3.575-2.56,14.8,14.8,0,0,1,4.782-.96c0.317,1.75.766,6.07-1.875,8.49-1.521,1.4-4.082,1.68-6.072,1.64l2.394-2.4a33.015,33.015,0,0,1,3.8-2.86l-0.884-1.8a35.137,35.137,0,0,0-4.265,3.19l-1.536,1.54A18.081,18.081,0,0,0,709.841,5784.55Zm-17.007-24.53a1.626,1.626,0,0,1,.552-1.64,1.657,1.657,0,0,1,1.544-.31,1.631,1.631,0,0,1,1.1,1.13l0.394,1.38-0.534.35c-0.019.02-.037,0.03-0.056,0.05-0.226.13-.457,0.26-0.679,0.4l-0.162.11-0.951-.23A1.639,1.639,0,0,1,692.834,5760.02Zm-3.161,31.57-1.27-1.9,7.912-5.54c0.008,0.04.019,0.07,0.027,0.11,0.077,0.35.163,0.71,0.268,1.05,0.015,0.05.034,0.1,0.05,0.15,0.105,0.34.218,0.67,0.351,1Zm8.023-19.52a0.389,0.389,0,0,0-.146.04,0.83,0.83,0,0,0-.125.1,0.944,0.944,0,0,0-.381.5,0.162,0.162,0,0,0-.009.03c0,0.02-.011.04-0.021,0.07a28.489,28.489,0,0,0-1,9.08c0,0.01,0,.02,0,0.03l-4.839,3.39c-3.589-6.95-2.866-16.96,4.124-21.62l0.17-.11a0.935,0.935,0,0,0,.475-0.19c0.343-.27.688-0.54,1.06-0.79l0.056-.04a15.806,15.806,0,0,1,20.353,3.69l0.385,0.42-12.743,8.92c-0.036-.03-0.074-0.05-0.111-0.08a29.094,29.094,0,0,0-6.606-3.45,1.085,1.085,0,0,0-.252-0.04c-0.049,0-.1-0.02-0.146-0.02A1.059,1.059,0,0,0,697.7,5772.07Zm9.681,18.52a29.457,29.457,0,0,0-1.468-4.01,27.312,27.312,0,0,0-3.114-5.19l-1.59,1.22a25.011,25.011,0,0,1,2.885,4.8,29.178,29.178,0,0,1,1.555,4.38,0.565,0.565,0,0,1-.114-0.05,15.41,15.41,0,0,1-1.559-.74c-0.057-.03-0.11-0.07-0.164-0.1a13.749,13.749,0,0,1-1.423-.92c-0.041-.03-0.078-0.07-0.118-0.1a12.637,12.637,0,0,1-1.278-1.1,0.5,0.5,0,0,0-.062-0.07,11.812,11.812,0,0,1-1.123-1.3,8.214,8.214,0,0,1-.66-1.1,11.536,11.536,0,0,1-1.091-4,25.732,25.732,0,0,1,.634-7.96,28.266,28.266,0,0,1,4.2,2.18l0.051,0.03a15.27,15.27,0,0,1,1.447,1.05q0.294,0.24.551,0.48s0.009,0.01.013,0.01c0.162,0.15.312,0.31,0.451,0.46l0.033,0.03c0.13,0.14.247,0.28,0.355,0.42,0.013,0.02.029,0.03,0.042,0.05,0.117,0.16.222,0.31,0.313,0.46,0.142,0.23.27,0.48,0.4,0.73,0.056,0.11.113,0.22,0.17,0.34,0.118,0.25.233,0.51,0.343,0.78A15.32,15.32,0,0,1,707.377,5790.59Zm0.638-11.84c-0.053-.09-0.106-0.18-0.16-0.27a7.551,7.551,0,0,0-.518-0.74c-0.057-.07-0.125-0.14-0.185-0.21-0.151-.18-0.306-0.36-0.474-0.53-0.021-.02-0.036-0.04-0.057-0.06l15.848-11.1,1.271,1.91Zm27.872,17.79A1,1,0,0,0,735,5796H677a1,1,0,0,0-.813,1.58A17.737,17.737,0,0,0,690.6,5805H721.4a17.74,17.74,0,0,0,14.416-7.42A1,1,0,0,0,735.887,5796.54ZM721.4,5803H690.6a15.756,15.756,0,0,1-11.494-5h53.782A15.758,15.758,0,0,1,721.4,5803Zm12.6-58v11h-2v-11h-2v11h-2v-11h-2v14a2.986,2.986,0,0,0,2,2.81V5786a3,3,0,0,0,6,0v-24.19a2.985,2.985,0,0,0,2-2.81v-14h-2Zm-2,41a1,1,0,0,1-2,0v-24h2v24Zm2-27a1,1,0,0,1-1,1h-4a1,1,0,0,1-1-1v-1h6v1Z" transform="translate(-676 -5745)"></path>
</svg>