<svg xmlns="http://www.w3.org/2000/svg" width="64" height="64" viewBox="0 0 64 64">
  <path d="M1213,5923a32,32,0,1,0,32,32A32.036,32.036,0,0,0,1213,5923Zm0,61.87a29.87,29.87,0,1,1,29.87-29.87A29.9,29.9,0,0,1,1213,5984.87Zm17.35-9.76-10.54-10.54-7.15-7.16-3.11-3.1-8.25-8.26-8.41-8.4a1,1,0,0,0-.81-0.31,1.036,1.036,0,0,0-.78.4,27.394,27.394,0,0,0-6.03,17.26,27.762,27.762,0,0,0,27.73,27.73,27.435,27.435,0,0,0,17.26-6.03A1.07,1.07,0,0,0,1230.35,5975.11Zm-22.75-12.46-3.32-3.32a18.464,18.464,0,0,1,3.47-.15A17.6,17.6,0,0,1,1207.6,5962.65Zm0.09-7.18c-0.04.6-.06,1.14-0.06,1.57-2.21-.1-6.84.06-9.62,2.83l1.51,1.51a6.463,6.463,0,0,1,2.35-1.44l5.12,5.12a6.463,6.463,0,0,1-1.44,2.35l1.51,1.51a9.341,9.341,0,0,0,2.31-4.26l0.12-.12-0.07-.07a18.657,18.657,0,0,0,.47-5.22c0.44,0.02.98,0.02,1.59,0l6.27,6.28a12.791,12.791,0,1,1-17.41-17.41Zm5.31,25.13a25.63,25.63,0,0,1-25.6-25.6,25.32,25.32,0,0,1,4.84-14.98l6.55,6.54a14.8,14.8,0,0,0-7.12,12.71,14.95,14.95,0,0,0,14.93,14.93,14.793,14.793,0,0,0,12.7-7.12l8.68,8.67A25.261,25.261,0,0,1,1213,5980.6Zm0-53.33a27.394,27.394,0,0,0-17.26,6.03,1.033,1.033,0,0,0-.4.77,1.047,1.047,0,0,0,.31.82l14.57,14.57,0.01,0.01,7.45,7.45,0.01,0.01,15.42,15.42a1.06,1.06,0,0,0,.75.31h0.06a1.069,1.069,0,0,0,.78-0.4,27.435,27.435,0,0,0,6.03-17.26A27.762,27.762,0,0,0,1213,5927.27Zm6.32,26.19c-0.09.16-.17,0.3-0.26,0.45a6.053,6.053,0,0,1-.56.77,0.022,0.022,0,0,0-.02.02l-6.03-6.03a5.8,5.8,0,0,1,.79-0.59c0.13-.09.27-0.17,0.41-0.25l0.18-.09,5.56,5.56C1219.37,5953.36,1219.34,5953.41,1219.32,5953.46Zm-3.32-6.57a18.215,18.215,0,0,1,4.54-.56,19,19,0,0,1-.36,4.74Zm17.76,23.09-13.78-13.78c0.14-.15.29-0.31,0.42-0.48,0.1-.12.18-0.25,0.27-0.38,0.07-.11.15-0.21,0.22-0.33a6.215,6.215,0,0,0,.32-0.56,1.865,1.865,0,0,0,.1-0.2c0.12-.23.22-0.46,0.32-0.7a0.3,0.3,0,0,1,.04-0.08v-0.02a17.785,17.785,0,0,0,1.02-6.82c0.49,0.04,1.09.08,1.76,0.08,2.4,0,5.66-.46,7.81-2.61l-1.51-1.51a5.789,5.789,0,0,1-1.39.97l-5.64-5.64a6.635,6.635,0,0,1,.99-1.37l-1.51-1.5c-2.7,2.7-2.92,6.98-2.83,9.15a18.01,18.01,0,0,0-6.75,1.26h-0.01a0.053,0.053,0,0,1-.03.02c-0.25.11-.49,0.23-0.73,0.35a1.505,1.505,0,0,0-.17.1q-0.285.15-.57,0.33c-0.1.07-.2,0.15-0.3,0.22-0.13.09-.27,0.18-0.39,0.28-0.17.13-.32,0.27-0.47,0.41l-12.93-12.92a25.261,25.261,0,0,1,14.98-4.85,25.624,25.624,0,0,1,25.6,25.6A25.32,25.32,0,0,1,1233.76,5969.98Zm-10.88-29.88,4.22,4.22a15.867,15.867,0,0,1-4.58.14A15.092,15.092,0,0,1,1222.88,5940.1Z" transform="translate(-1181 -5923)"></path>
</svg>