<svg xmlns="http://www.w3.org/2000/svg" width="64" height="64" viewBox="0 0 64 64">
  <path d="M1239.91,5798.47l4.89-6.85a1.069,1.069,0,0,0-.87-1.69h-14a16.992,16.992,0,0,0-15.86-19.14v-3.26a9.609,9.609,0,0,0,9.6-9.6v-1.06a1.071,1.071,0,0,0-1.07-1.07h-1.07a9.574,9.574,0,0,0-7.46,3.58v-5.71a8.546,8.546,0,0,0,8.53-8.54v-1.06a1.071,1.071,0,0,0-1.07-1.07h-1.06a8.542,8.542,0,0,0-7.47,4.41,8.542,8.542,0,0,0-7.47-4.41h-1.06a1.071,1.071,0,0,0-1.07,1.07v1.06a8.546,8.546,0,0,0,8.53,8.54v5.71a9.574,9.574,0,0,0-7.46-3.58h-1.07a1.071,1.071,0,0,0-1.07,1.07v1.06a9.609,9.609,0,0,0,9.6,9.6v3.26a16.992,16.992,0,0,0-15.86,19.14h-14a1.069,1.069,0,0,0-.87,1.69l4.89,6.85-4.89,6.84a1.083,1.083,0,0,0-.08,1.11,1.058,1.058,0,0,0,.95.58h61.86a1.058,1.058,0,0,0,.95-0.58,1.083,1.083,0,0,0-.08-1.11Zm-19.44-53.34a6.406,6.406,0,0,1-6.4,6.4A6.406,6.406,0,0,1,1220.47,5745.13Zm1.06,12.8a7.475,7.475,0,0,1-7.46,7.47A7.475,7.475,0,0,1,1221.53,5757.93Zm-16-12.8a6.406,6.406,0,0,1,6.4,6.4A6.406,6.406,0,0,1,1205.53,5745.13Zm-1.06,12.8a7.475,7.475,0,0,1,7.46,7.47A7.475,7.475,0,0,1,1204.47,5757.93Zm-20.33,46.94,4.13-5.78a1.083,1.083,0,0,0,0-1.24l-4.13-5.78h13.18a1.088,1.088,0,0,0,.83-0.4,1.069,1.069,0,0,0,.22-0.88,14.93,14.93,0,1,1,29.26,0,1.077,1.077,0,0,0,1.05,1.28h13.18l-4.13,5.78a1.05,1.05,0,0,0,0,1.24l4.13,5.78h-57.72Zm34.15-10.82a4.96,4.96,0,0,0-1.36-2.73l-1.53,1.49a2.785,2.785,0,0,1,.78,1.54,2.944,2.944,0,0,1-.79,2.31l1.55,1.47A5.132,5.132,0,0,0,1218.29,5794.05Zm-3.16-6.25a1.082,1.082,0,0,0-.47.11l-0.86.43a6.476,6.476,0,0,1,.22-2.37,6.775,6.775,0,0,1,.92-1.88v-0.01a7.124,7.124,0,0,1,1.84-1.79l-1.16-1.78a7.909,7.909,0,0,0-.97.73,6.892,6.892,0,0,0-3.3-4.04c-1.54-.78-4.3-1.34-5.59.29s-0.05,4.24,1.09,5.61a7.49,7.49,0,0,0,5.07,2.5,8.8,8.8,0,0,0-.29,2.46l-0.29-.15a1.082,1.082,0,0,0-.47-0.11,7.465,7.465,0,1,0,0,14.93h4.26A7.465,7.465,0,1,0,1215.13,5787.8Zm-6.64-6.06c-0.91-1.1-1.35-2.55-1.05-2.93a1.151,1.151,0,0,1,.85-0.23,5.053,5.053,0,0,1,2.1.52c1.86,0.94,2.42,3.21,2.57,4.12a3.284,3.284,0,0,0-.2.31A5.768,5.768,0,0,1,1208.49,5781.74Zm6.64,18.86h-4.26a5.333,5.333,0,0,1-.24-10.66l1.89,0.95a1.08,1.08,0,0,0,.96,0l1.89-.95A5.333,5.333,0,0,1,1215.13,5800.6Z" transform="translate(-1181 -5743)"></path>
</svg>