<svg xmlns="http://www.w3.org/2000/svg" width="64" height="67" viewBox="0 0 64 67">
  <path d="M1243.86,6469.09h-4.8a6.661,6.661,0,0,0,.23-1.67,6.494,6.494,0,0,0-.34-2.06,6.259,6.259,0,0,0,.17-11.4,7.548,7.548,0,0,0,.17-1.57c0-3.27-2.03-6-4.69-6.57-0.01-.05-0.04-0.1-0.05-0.15,4.18-4.41,6.57-8.22,8.16-13,1.74-5.26,1.43-10.35-.88-14.31a15.318,15.318,0,0,0-10.29-7.13c-5.36-1.21-13.56,2.46-18.29,8.18a0.834,0.834,0,0,0-.08.12l-0.17.27-0.17-.27a0.834,0.834,0,0,0-.08-0.12c-5.01-6.06-14.4-9.32-19.44-8.18-4.33.98-7.61,3.2-9.48,6.42-2.24,3.85-2.43,8.9-.54,14.6,2.3,6.93,6.14,11.38,12.87,17.62a86.714,86.714,0,0,0,6.98,5.78,9.915,9.915,0,0,0-2.45,4.54h-13.98a1.121,1.121,0,0,0-1.14,1.11v1.11a10.9,10.9,0,0,0,2.3,6.68h-5.73a1.129,1.129,0,0,0-1.14,1.12,7.91,7.91,0,0,0,8,7.79h48a7.91,7.91,0,0,0,8-7.79A1.129,1.129,0,0,0,1243.86,6469.09Zm-6.86-16.7a5.579,5.579,0,0,1-.35,1.93,1.051,1.051,0,0,0,.08.93,1.155,1.155,0,0,0,.79.55,3.777,3.777,0,0,1,2.91,3.83,3.728,3.728,0,0,1-3.18,3.86,1.119,1.119,0,0,0-.92.61,1.071,1.071,0,0,0,.04,1.08,4.227,4.227,0,0,1,.63,2.24,4.132,4.132,0,0,1-.35,1.67H1229v-0.66l4.24-4.12-1.62-1.58-2.62,2.55v-4.57l5.29-4.11-1.43-1.74-3.86,3v-3.9l3.09-3.01-1.61-1.58-1.48,1.44v-2.88h-2.29v2.88l-1.47-1.44-1.62,1.58,3.09,3.01v3.9l-3.85-3-1.43,1.74,5.29,4.11v4.57l-2.63-2.55-1.61,1.58,4.23,4.12v0.66h-7.65a3.853,3.853,0,0,1-.2-0.57c0.1-.13.19-0.28,0.29-0.41,0.08-.12.17-0.23,0.24-0.35a5.736,5.736,0,0,0,.32-0.53c0.12-.2.22-0.4,0.32-0.61,0.09-.19.18-0.39,0.26-0.59,0.09-.24.18-0.48,0.26-0.72,0.03-.12.07-0.24,0.11-0.37,0.09-.35.16-0.7,0.22-1.06a2.512,2.512,0,0,1,.04-0.27,9.673,9.673,0,0,0,.08-1.2c0-.33-0.02-0.66-0.05-0.98-0.01-.09-0.03-0.19-0.04-0.28-0.03-.23-0.06-0.46-0.11-0.68-0.02-.1-0.05-0.2-0.07-0.3-0.05-.22-0.1-0.43-0.17-0.64a2.307,2.307,0,0,0-.1-0.28,5.85,5.85,0,0,0-.23-0.63c-0.04-.09-0.08-0.18-0.12-0.26-0.09-.2-0.19-0.4-0.29-0.6-0.05-.09-0.1-0.17-0.15-0.26-0.11-.18-0.22-0.36-0.34-0.54a2.832,2.832,0,0,0-.2-0.28,5.3,5.3,0,0,0-.34-0.45l-0.26-.32-0.03-.03-0.01-.01c-0.03-.04-0.07-0.08-0.1-0.12,0.06-.03.11-0.07,0.17-0.1,0.04-.03.08-0.04,0.12-0.07a1.219,1.219,0,0,0,.31-0.33,1.12,1.12,0,0,0,.08-0.93,5.367,5.367,0,0,1-.36-1.93c0-2.45,1.54-4.45,3.43-4.45a1.136,1.136,0,0,0,1.15-1.11c0-1.85,2.05-3.34,4.57-3.34a5.691,5.691,0,0,1,.83.06c0.1,0.01.2,0.03,0.3,0.05,0.16,0.03.31,0.07,0.46,0.11,0.12,0.03.25,0.07,0.37,0.11,0.1,0.04.2,0.08,0.29,0.12a3.358,3.358,0,0,1,.43.2h0.01a3.7,3.7,0,0,1,1.65,1.7,0.106,0.106,0,0,0,.02.05,2.524,2.524,0,0,1,.21.94,1.127,1.127,0,0,0,1.14,1.11C1235.46,6447.94,1237,6449.94,1237,6452.39Zm-39.26-4.13c-6.45-5.99-10.12-10.22-12.27-16.7-1.69-5.09-1.57-9.52.35-12.81,1.57-2.71,4.26-4.51,8.01-5.35a7.475,7.475,0,0,1,1.7-.17c4.5,0,11.56,2.92,15.39,7.52l1.1,1.76a1.2,1.2,0,0,0,1.95,0l1.11-1.76c4.59-5.52,11.94-8.26,15.95-7.35a13.107,13.107,0,0,1,8.81,6.05c1.99,3.42,2.24,7.87.69,12.53a30.383,30.383,0,0,1-7.12,11.61,0.764,0.764,0,0,0-.09-0.09,4.784,4.784,0,0,0-.39-0.39c-0.11-.1-0.23-0.2-0.35-0.29a6.424,6.424,0,0,0-.6-0.42c-0.15-.09-0.3-0.18-0.46-0.26-0.13-.07-0.25-0.13-0.39-0.19-0.24-.1-0.49-0.2-0.74-0.28a2.992,2.992,0,0,0-.32-0.1c-0.26-.07-0.54-0.13-0.82-0.18-0.1-.02-0.21-0.04-0.31-0.05a7.849,7.849,0,0,0-1.08-.08c-3.36,0-6.16,1.97-6.75,4.56-2.66.57-4.68,3.3-4.68,6.57a7.632,7.632,0,0,0,.16,1.58c-0.07.03-.14,0.06-0.2,0.09a11.021,11.021,0,0,0-1.22-.66l-0.18-.09a11.8,11.8,0,0,0-1.29-.49c-0.02,0-.05-0.01-0.07-0.01a8.549,8.549,0,0,0-1.24-.27c-0.11-.02-0.21-0.04-0.32-0.05a10.122,10.122,0,0,0-1.36-.1,11.157,11.157,0,0,0-1.41.11l-0.22.03a8.8,8.8,0,0,0-1.37.31l-0.11.03a10.842,10.842,0,0,0-2.64,1.25,0.209,0.209,0,0,1-.06.04A82.32,82.32,0,0,1,1197.74,6448.26Zm7.99,8.08c0.25-.19.51-0.36,0.77-0.52,0.12-.07.24-0.16,0.37-0.23a7.843,7.843,0,0,1,.72-0.32c0.17-.07.33-0.16,0.5-0.22,0.23-.07.47-0.12,0.71-0.18,0.19-.04.38-0.11,0.58-0.14a8.326,8.326,0,0,1,1.33-.11,6.566,6.566,0,0,1,.78.04c0.12,0.01.23,0.03,0.34,0.05a3.034,3.034,0,0,1,.42.06c0.14,0.03.28,0.06,0.43,0.1a2.46,2.46,0,0,1,.29.07c0.17,0.05.33,0.11,0.49,0.16,0.07,0.03.14,0.05,0.21,0.08,0.18,0.07.36,0.15,0.53,0.23,0.05,0.02.09,0.04,0.13,0.06,0.2,0.1.39,0.21,0.58,0.32a0.138,0.138,0,0,1,.04.03,7.42,7.42,0,0,1,1.06.78c0.06,0.05.12,0.1,0.17,0.15h0.01v0.01a0.7,0.7,0,0,1,.1.08c0.08,0.08.16,0.17,0.24,0.25,0.11,0.11.21,0.21,0.31,0.33,0.03,0.04.07,0.07,0.1,0.11v0.01h0.01a0.1,0.1,0,0,0,.04.05,0.037,0.037,0,0,0,.01.03,3.155,3.155,0,0,1,.22.29c0.02,0.02.03,0.04,0.05,0.06,0.08,0.12.16,0.23,0.23,0.34a0.01,0.01,0,0,0,.01.01,1.054,1.054,0,0,0,.07.11l0.24,0.42c0.06,0.11.11,0.22,0.17,0.34s0.12,0.27.17,0.41a3.646,3.646,0,0,1,.14.35c0.05,0.15.09,0.3,0.13,0.45a2.136,2.136,0,0,1,.09.34c0.04,0.18.07,0.36,0.1,0.54,0.01,0.09.03,0.19,0.04,0.29a5.832,5.832,0,0,1,.05.84,7.66,7.66,0,0,1-.11,1.26c-0.02.09-.04,0.19-0.06,0.28a7.967,7.967,0,0,1-.3,1.06c-0.02.05-.03,0.09-0.05,0.14a7.956,7.956,0,0,1-3.36,3.94h-8.21c-0.11-.06-0.22-0.13-0.33-0.2,0.04-.07.09-0.14,0.14-0.21,0.22-.32.42-0.64,0.61-0.98a3.071,3.071,0,0,0,.17-0.31c0.1-.18.18-0.36,0.26-0.54,0.06-.15.13-0.3,0.19-0.46s0.13-.33.19-0.49c0.1-.31.19-0.61,0.27-0.93,0.03-.11.04-0.22,0.07-0.33,0.05-.26.1-0.52,0.13-0.78,0.02-.12.03-0.23,0.04-0.35a9.993,9.993,0,0,0,.07-1.1v-1.11a1.121,1.121,0,0,0-1.14-1.11h-4.24A7.776,7.776,0,0,1,1205.73,6456.34Zm-17.87,6.07h18.28a8.491,8.491,0,0,1-.05.88c-0.01.13-.03,0.24-0.05,0.37a4,4,0,0,1-.08.48c-0.03.16-.07,0.31-0.11,0.46a3.574,3.574,0,0,1-.1.35c-0.05.18-.11,0.35-0.17,0.52-0.03.08-.07,0.16-0.1,0.24-0.08.2-.16,0.39-0.25,0.57-0.02.04-.05,0.08-0.07,0.12a8.882,8.882,0,0,1-1.35,1.94,0.01,0.01,0,0,1-.01.01,7.6,7.6,0,0,1-.76.74h-12.08A8.75,8.75,0,0,1,1187.86,6462.41Zm49.14,13.36h-48a5.683,5.683,0,0,1-5.6-4.45h59.2A5.683,5.683,0,0,1,1237,6475.77Zm-41.14-11.13h2.28v2.23h-2.28v-2.23Zm4.57,0h2.28v2.23h-2.28v-2.23Zm-9.14,0h2.28v2.23h-2.28v-2.23Zm23.66-6.35a5.38,5.38,0,0,0-2.92-1.43l-0.35,2.2a2.851,2.851,0,0,1,2.47,3.23l2.27,0.25A5.181,5.181,0,0,0,1214.95,6458.29Zm11.78-30.69a1.14,1.14,0,0,0-1.1-.81c-0.13.02-4.47,0.02-7.34,1.3a16.15,16.15,0,0,0-3.53,2.2c-0.21-.56-0.43-1.12-0.61-1.57l-0.04-.11c-0.03-.07-0.07-0.14-0.1-0.21-0.14-.33-0.28-0.67-0.45-1-0.21-.41-0.43-0.8-0.67-1.19-2.64-4.26-10.54-7.03-10.88-7.15a1.22,1.22,0,0,0-.9.05,1.135,1.135,0,0,0-.57.68c-0.15.46-3.46,11.38,1.31,17.68a17.861,17.861,0,0,0,8.54,5.96,1.256,1.256,0,0,0,.38.06,1.125,1.125,0,0,0,.51-0.12l1.02-.49,0.97-.48a24.247,24.247,0,0,0,2.74.16c2.72,0,5.95-.49,8.11-2.42C1228.98,6435.8,1226.83,6427.94,1226.73,6427.6Zm-14.38,12.08a33.236,33.236,0,0,0-1.68-4.45,30.585,30.585,0,0,0-3.56-5.78l-1.82,1.35a28.01,28.01,0,0,1,3.3,5.36,31.27,31.27,0,0,1,1.77,4.87,0.612,0.612,0,0,0-.12-0.05,19.556,19.556,0,0,1-1.79-.83c-0.06-.04-0.12-0.07-0.18-0.11a16.687,16.687,0,0,1-1.63-1.03,1.47,1.47,0,0,1-.13-0.1,16.045,16.045,0,0,1-1.47-1.24,0.435,0.435,0,0,1-.06-0.07,13.517,13.517,0,0,1-1.29-1.45c-3.27-4.31-1.96-11.69-1.28-14.54,2.19,0.89,6.84,3.04,8.53,5.75,0.2,0.33.38,0.66,0.55,1a1.632,1.632,0,0,1,.09.19c0.13,0.27.26,0.55,0.37,0.83A16.592,16.592,0,0,1,1212.35,6439.68Zm10.22-1.18c-1.74,1.56-4.68,1.87-6.94,1.82l2.74-2.66a34.862,34.862,0,0,1,4.34-3.19l-1.02-2a39.406,39.406,0,0,0-4.87,3.55l-1.76,1.71a19.527,19.527,0,0,0,.1-4.76,13.3,13.3,0,0,1,4.09-2.86,17.257,17.257,0,0,1,5.46-1.06C1225.08,6431,1225.59,6435.8,1222.57,6438.5Z" transform="translate(-1181 -6411)"></path>
</svg>